<svg width="2072" height="480" viewBox="0 0 2072 480" fill="none" xmlns="http://www.w3.org/2000/svg">
  <path d="M0 110.648C0 79.556 33.9188 60.3512 60.58 76.348L161.16 136.696C185.256 151.154 200 177.194 200 205.296L200 274.704C200 302.806 185.256 328.846 161.16 343.304L60.5798 403.652C33.9188 419.648 0 400.444 0 369.352L0 110.648Z" fill="#34A853"/>
  <path d="M415.42 0C436.604 0 447.4 25.4478 432.676 40.6804L379.584 95.6016C364.512 111.195 343.754 120 322.066 120L222.158 120C207.66 120 193.432 116.059 180.999 108.599L74.2998 44.5796C53.427 32.0562 62.3062 0 86.6476 0L415.42 0Z" fill="#FBBC05"/>
  <path d="M415.42 480C436.604 480 447.4 454.552 432.676 439.32L379.584 384.399C364.512 368.805 343.754 360 322.066 360L222.158 360C207.66 360 193.432 363.941 180.999 371.401L74.2998 435.42C53.427 447.944 62.3062 480 86.6476 480L415.42 480Z" fill="#EA4335"/>
  <rect x="224" y="180" width="120" height="120" rx="60" fill="#4285F4"/>
  <text x="520" y="280" fill="black" font-size="160" font-family="Arial, sans-serif" font-weight="bold">SportSync</text>
</svg>
